<mxfile host="app.diagrams.net" modified="2022-09-01T21:37:14.566Z" agent="5.0 (X11; Linux x86_64) AppleWebKit/537.36 (KHTML, like Gecko) Chrome/104.0.0.0 Safari/537.36" etag="YfoxpLRISzEvcr17NuVR" version="20.2.8" type="github">
  <diagram id="wmLqz282Bcjy7ACeYt6-" name="Pagina-1">
    <mxGraphModel dx="729" dy="409" grid="1" gridSize="10" guides="1" tooltips="1" connect="1" arrows="1" fold="1" page="1" pageScale="1" pageWidth="827" pageHeight="1169" math="0" shadow="0">
      <root>
        <mxCell id="0" />
        <mxCell id="1" parent="0" />
        <mxCell id="s4xOyff_KLn-6yWEBULN-20" value="" style="ellipse;whiteSpace=wrap;html=1;fillColor=none;" parent="1" vertex="1">
          <mxGeometry x="350" y="350" width="110" height="90" as="geometry" />
        </mxCell>
        <mxCell id="s4xOyff_KLn-6yWEBULN-1" value="" style="ellipse;whiteSpace=wrap;html=1;aspect=fixed;fillColor=#1938FF;" parent="1" vertex="1">
          <mxGeometry x="370" y="370" width="10" height="10" as="geometry" />
        </mxCell>
        <mxCell id="s4xOyff_KLn-6yWEBULN-2" value="" style="ellipse;whiteSpace=wrap;html=1;aspect=fixed;fillColor=#1938FF;" parent="1" vertex="1">
          <mxGeometry x="380" y="380" width="10" height="10" as="geometry" />
        </mxCell>
        <mxCell id="s4xOyff_KLn-6yWEBULN-3" value="" style="ellipse;whiteSpace=wrap;html=1;aspect=fixed;fillColor=#1938FF;" parent="1" vertex="1">
          <mxGeometry x="390" y="390" width="10" height="10" as="geometry" />
        </mxCell>
        <mxCell id="s4xOyff_KLn-6yWEBULN-4" value="" style="ellipse;whiteSpace=wrap;html=1;aspect=fixed;fillColor=#1938FF;" parent="1" vertex="1">
          <mxGeometry x="400" y="400" width="10" height="10" as="geometry" />
        </mxCell>
        <mxCell id="s4xOyff_KLn-6yWEBULN-5" value="" style="ellipse;whiteSpace=wrap;html=1;aspect=fixed;fillColor=#1938FF;" parent="1" vertex="1">
          <mxGeometry x="390" y="410" width="10" height="10" as="geometry" />
        </mxCell>
        <mxCell id="s4xOyff_KLn-6yWEBULN-6" value="" style="ellipse;whiteSpace=wrap;html=1;aspect=fixed;fillColor=#1938FF;" parent="1" vertex="1">
          <mxGeometry x="378" y="401" width="10" height="10" as="geometry" />
        </mxCell>
        <mxCell id="s4xOyff_KLn-6yWEBULN-7" value="" style="ellipse;whiteSpace=wrap;html=1;aspect=fixed;fillColor=#1938FF;" parent="1" vertex="1">
          <mxGeometry x="402" y="418" width="10" height="10" as="geometry" />
        </mxCell>
        <mxCell id="s4xOyff_KLn-6yWEBULN-8" value="" style="ellipse;whiteSpace=wrap;html=1;aspect=fixed;fillColor=#1938FF;" parent="1" vertex="1">
          <mxGeometry x="378" y="423" width="10" height="10" as="geometry" />
        </mxCell>
        <mxCell id="s4xOyff_KLn-6yWEBULN-9" value="" style="endArrow=none;html=1;rounded=0;" parent="1" edge="1">
          <mxGeometry width="50" height="50" relative="1" as="geometry">
            <mxPoint x="320" y="520" as="sourcePoint" />
            <mxPoint x="320" y="240" as="targetPoint" />
          </mxGeometry>
        </mxCell>
        <mxCell id="s4xOyff_KLn-6yWEBULN-10" value="" style="endArrow=none;html=1;rounded=0;" parent="1" edge="1">
          <mxGeometry width="50" height="50" relative="1" as="geometry">
            <mxPoint x="320" y="520" as="sourcePoint" />
            <mxPoint x="600" y="520" as="targetPoint" />
          </mxGeometry>
        </mxCell>
        <mxCell id="s4xOyff_KLn-6yWEBULN-11" value="" style="ellipse;whiteSpace=wrap;html=1;aspect=fixed;fillColor=#96D9FF;" parent="1" vertex="1">
          <mxGeometry x="406" y="374" width="10" height="10" as="geometry" />
        </mxCell>
        <mxCell id="s4xOyff_KLn-6yWEBULN-12" value="" style="ellipse;whiteSpace=wrap;html=1;aspect=fixed;fillColor=#96D9FF;" parent="1" vertex="1">
          <mxGeometry x="421" y="367" width="10" height="10" as="geometry" />
        </mxCell>
        <mxCell id="s4xOyff_KLn-6yWEBULN-13" value="" style="ellipse;whiteSpace=wrap;html=1;aspect=fixed;fillColor=#96D9FF;" parent="1" vertex="1">
          <mxGeometry x="431" y="377" width="10" height="10" as="geometry" />
        </mxCell>
        <mxCell id="s4xOyff_KLn-6yWEBULN-14" value="" style="ellipse;whiteSpace=wrap;html=1;aspect=fixed;fillColor=#96D9FF;" parent="1" vertex="1">
          <mxGeometry x="441" y="387" width="10" height="10" as="geometry" />
        </mxCell>
        <mxCell id="s4xOyff_KLn-6yWEBULN-15" value="" style="ellipse;whiteSpace=wrap;html=1;aspect=fixed;fillColor=#96D9FF;" parent="1" vertex="1">
          <mxGeometry x="431" y="397" width="10" height="10" as="geometry" />
        </mxCell>
        <mxCell id="s4xOyff_KLn-6yWEBULN-16" value="" style="ellipse;whiteSpace=wrap;html=1;aspect=fixed;fillColor=#96D9FF;" parent="1" vertex="1">
          <mxGeometry x="419" y="388" width="10" height="10" as="geometry" />
        </mxCell>
        <mxCell id="s4xOyff_KLn-6yWEBULN-17" value="" style="ellipse;whiteSpace=wrap;html=1;aspect=fixed;fillColor=#96D9FF;" parent="1" vertex="1">
          <mxGeometry x="443" y="405" width="10" height="10" as="geometry" />
        </mxCell>
        <mxCell id="s4xOyff_KLn-6yWEBULN-18" value="" style="ellipse;whiteSpace=wrap;html=1;aspect=fixed;fillColor=#96D9FF;" parent="1" vertex="1">
          <mxGeometry x="419" y="410" width="10" height="10" as="geometry" />
        </mxCell>
        <mxCell id="s4xOyff_KLn-6yWEBULN-21" value="Group 1" style="text;html=1;align=center;verticalAlign=middle;resizable=0;points=[];autosize=1;strokeColor=none;fillColor=none;" parent="1" vertex="1">
          <mxGeometry x="371" y="326" width="70" height="30" as="geometry" />
        </mxCell>
        <mxCell id="s4xOyff_KLn-6yWEBULN-22" value="" style="rounded=0;whiteSpace=wrap;html=1;fillColor=#96D9FF;strokeColor=none;" parent="1" vertex="1">
          <mxGeometry x="630" y="240" width="20" height="10" as="geometry" />
        </mxCell>
        <mxCell id="s4xOyff_KLn-6yWEBULN-23" value="" style="rounded=0;whiteSpace=wrap;html=1;fillColor=#1938FF;strokeColor=none;" parent="1" vertex="1">
          <mxGeometry x="630" y="260" width="20" height="10" as="geometry" />
        </mxCell>
        <mxCell id="s4xOyff_KLn-6yWEBULN-24" value="Altered" style="text;html=1;align=center;verticalAlign=middle;resizable=0;points=[];autosize=1;strokeColor=none;fillColor=none;" parent="1" vertex="1">
          <mxGeometry x="645" y="230" width="60" height="30" as="geometry" />
        </mxCell>
        <mxCell id="s4xOyff_KLn-6yWEBULN-25" value="Controls" style="text;html=1;align=center;verticalAlign=middle;resizable=0;points=[];autosize=1;strokeColor=none;fillColor=none;" parent="1" vertex="1">
          <mxGeometry x="640" y="250" width="70" height="30" as="geometry" />
        </mxCell>
        <mxCell id="s4xOyff_KLn-6yWEBULN-26" value="" style="ellipse;whiteSpace=wrap;html=1;fillColor=none;" parent="1" vertex="1">
          <mxGeometry x="479" y="418" width="110" height="90" as="geometry" />
        </mxCell>
        <mxCell id="s4xOyff_KLn-6yWEBULN-27" value="" style="ellipse;whiteSpace=wrap;html=1;aspect=fixed;fillColor=#1938FF;" parent="1" vertex="1">
          <mxGeometry x="493" y="469" width="10" height="10" as="geometry" />
        </mxCell>
        <mxCell id="s4xOyff_KLn-6yWEBULN-28" value="" style="ellipse;whiteSpace=wrap;html=1;aspect=fixed;fillColor=#1938FF;" parent="1" vertex="1">
          <mxGeometry x="509" y="448" width="10" height="10" as="geometry" />
        </mxCell>
        <mxCell id="s4xOyff_KLn-6yWEBULN-29" value="" style="ellipse;whiteSpace=wrap;html=1;aspect=fixed;fillColor=#1938FF;" parent="1" vertex="1">
          <mxGeometry x="561" y="482" width="10" height="10" as="geometry" />
        </mxCell>
        <mxCell id="s4xOyff_KLn-6yWEBULN-30" value="" style="ellipse;whiteSpace=wrap;html=1;aspect=fixed;fillColor=#1938FF;" parent="1" vertex="1">
          <mxGeometry x="529" y="468" width="10" height="10" as="geometry" />
        </mxCell>
        <mxCell id="s4xOyff_KLn-6yWEBULN-31" value="" style="ellipse;whiteSpace=wrap;html=1;aspect=fixed;fillColor=#1938FF;" parent="1" vertex="1">
          <mxGeometry x="519" y="478" width="10" height="10" as="geometry" />
        </mxCell>
        <mxCell id="s4xOyff_KLn-6yWEBULN-32" value="" style="ellipse;whiteSpace=wrap;html=1;aspect=fixed;fillColor=#1938FF;" parent="1" vertex="1">
          <mxGeometry x="507" y="469" width="10" height="10" as="geometry" />
        </mxCell>
        <mxCell id="s4xOyff_KLn-6yWEBULN-33" value="" style="ellipse;whiteSpace=wrap;html=1;aspect=fixed;fillColor=#1938FF;" parent="1" vertex="1">
          <mxGeometry x="538" y="438" width="10" height="10" as="geometry" />
        </mxCell>
        <mxCell id="s4xOyff_KLn-6yWEBULN-34" value="" style="ellipse;whiteSpace=wrap;html=1;aspect=fixed;fillColor=#1938FF;" parent="1" vertex="1">
          <mxGeometry x="560" y="446" width="10" height="10" as="geometry" />
        </mxCell>
        <mxCell id="s4xOyff_KLn-6yWEBULN-35" value="" style="ellipse;whiteSpace=wrap;html=1;aspect=fixed;fillColor=#96D9FF;" parent="1" vertex="1">
          <mxGeometry x="518" y="457" width="10" height="10" as="geometry" />
        </mxCell>
        <mxCell id="s4xOyff_KLn-6yWEBULN-36" value="" style="ellipse;whiteSpace=wrap;html=1;aspect=fixed;fillColor=#96D9FF;" parent="1" vertex="1">
          <mxGeometry x="550" y="435" width="10" height="10" as="geometry" />
        </mxCell>
        <mxCell id="s4xOyff_KLn-6yWEBULN-37" value="" style="ellipse;whiteSpace=wrap;html=1;aspect=fixed;fillColor=#96D9FF;" parent="1" vertex="1">
          <mxGeometry x="531" y="451" width="10" height="10" as="geometry" />
        </mxCell>
        <mxCell id="s4xOyff_KLn-6yWEBULN-38" value="" style="ellipse;whiteSpace=wrap;html=1;aspect=fixed;fillColor=#96D9FF;" parent="1" vertex="1">
          <mxGeometry x="507" y="485" width="10" height="10" as="geometry" />
        </mxCell>
        <mxCell id="s4xOyff_KLn-6yWEBULN-39" value="" style="ellipse;whiteSpace=wrap;html=1;aspect=fixed;fillColor=#96D9FF;" parent="1" vertex="1">
          <mxGeometry x="560" y="465" width="10" height="10" as="geometry" />
        </mxCell>
        <mxCell id="s4xOyff_KLn-6yWEBULN-40" value="" style="ellipse;whiteSpace=wrap;html=1;aspect=fixed;fillColor=#96D9FF;" parent="1" vertex="1">
          <mxGeometry x="548" y="456" width="10" height="10" as="geometry" />
        </mxCell>
        <mxCell id="s4xOyff_KLn-6yWEBULN-41" value="" style="ellipse;whiteSpace=wrap;html=1;aspect=fixed;fillColor=#96D9FF;" parent="1" vertex="1">
          <mxGeometry x="572" y="473" width="10" height="10" as="geometry" />
        </mxCell>
        <mxCell id="s4xOyff_KLn-6yWEBULN-42" value="" style="ellipse;whiteSpace=wrap;html=1;aspect=fixed;fillColor=#96D9FF;" parent="1" vertex="1">
          <mxGeometry x="548" y="478" width="10" height="10" as="geometry" />
        </mxCell>
        <mxCell id="s4xOyff_KLn-6yWEBULN-43" value="Group 2" style="text;html=1;align=center;verticalAlign=middle;resizable=0;points=[];autosize=1;strokeColor=none;fillColor=none;" parent="1" vertex="1">
          <mxGeometry x="500" y="394" width="70" height="30" as="geometry" />
        </mxCell>
        <mxCell id="s4xOyff_KLn-6yWEBULN-47" value="" style="ellipse;whiteSpace=wrap;html=1;fillColor=none;" parent="1" vertex="1">
          <mxGeometry x="454" y="233" width="110" height="90" as="geometry" />
        </mxCell>
        <mxCell id="s4xOyff_KLn-6yWEBULN-48" value="" style="ellipse;whiteSpace=wrap;html=1;aspect=fixed;fillColor=#1938FF;" parent="1" vertex="1">
          <mxGeometry x="501" y="253" width="10" height="10" as="geometry" />
        </mxCell>
        <mxCell id="s4xOyff_KLn-6yWEBULN-49" value="" style="ellipse;whiteSpace=wrap;html=1;aspect=fixed;fillColor=#1938FF;" parent="1" vertex="1">
          <mxGeometry x="484" y="263" width="10" height="10" as="geometry" />
        </mxCell>
        <mxCell id="s4xOyff_KLn-6yWEBULN-50" value="" style="ellipse;whiteSpace=wrap;html=1;aspect=fixed;fillColor=#1938FF;" parent="1" vertex="1">
          <mxGeometry x="521" y="273" width="10" height="10" as="geometry" />
        </mxCell>
        <mxCell id="s4xOyff_KLn-6yWEBULN-51" value="" style="ellipse;whiteSpace=wrap;html=1;aspect=fixed;fillColor=#1938FF;" parent="1" vertex="1">
          <mxGeometry x="504" y="283" width="10" height="10" as="geometry" />
        </mxCell>
        <mxCell id="s4xOyff_KLn-6yWEBULN-52" value="" style="ellipse;whiteSpace=wrap;html=1;aspect=fixed;fillColor=#1938FF;" parent="1" vertex="1">
          <mxGeometry x="494" y="293" width="10" height="10" as="geometry" />
        </mxCell>
        <mxCell id="s4xOyff_KLn-6yWEBULN-53" value="" style="ellipse;whiteSpace=wrap;html=1;aspect=fixed;fillColor=#1938FF;" parent="1" vertex="1">
          <mxGeometry x="482" y="284" width="10" height="10" as="geometry" />
        </mxCell>
        <mxCell id="s4xOyff_KLn-6yWEBULN-54" value="" style="ellipse;whiteSpace=wrap;html=1;aspect=fixed;fillColor=#1938FF;" parent="1" vertex="1">
          <mxGeometry x="506" y="301" width="10" height="10" as="geometry" />
        </mxCell>
        <mxCell id="s4xOyff_KLn-6yWEBULN-55" value="" style="ellipse;whiteSpace=wrap;html=1;aspect=fixed;fillColor=#1938FF;" parent="1" vertex="1">
          <mxGeometry x="482" y="306" width="10" height="10" as="geometry" />
        </mxCell>
        <mxCell id="s4xOyff_KLn-6yWEBULN-56" value="" style="ellipse;whiteSpace=wrap;html=1;aspect=fixed;fillColor=#96D9FF;" parent="1" vertex="1">
          <mxGeometry x="457" y="276" width="10" height="10" as="geometry" />
        </mxCell>
        <mxCell id="s4xOyff_KLn-6yWEBULN-57" value="" style="ellipse;whiteSpace=wrap;html=1;aspect=fixed;fillColor=#96D9FF;" parent="1" vertex="1">
          <mxGeometry x="472" y="269" width="10" height="10" as="geometry" />
        </mxCell>
        <mxCell id="s4xOyff_KLn-6yWEBULN-58" value="" style="ellipse;whiteSpace=wrap;html=1;aspect=fixed;fillColor=#96D9FF;" parent="1" vertex="1">
          <mxGeometry x="535" y="260" width="10" height="10" as="geometry" />
        </mxCell>
        <mxCell id="s4xOyff_KLn-6yWEBULN-59" value="" style="ellipse;whiteSpace=wrap;html=1;aspect=fixed;fillColor=#96D9FF;" parent="1" vertex="1">
          <mxGeometry x="545" y="270" width="10" height="10" as="geometry" />
        </mxCell>
        <mxCell id="s4xOyff_KLn-6yWEBULN-60" value="" style="ellipse;whiteSpace=wrap;html=1;aspect=fixed;fillColor=#96D9FF;" parent="1" vertex="1">
          <mxGeometry x="535" y="280" width="10" height="10" as="geometry" />
        </mxCell>
        <mxCell id="s4xOyff_KLn-6yWEBULN-61" value="" style="ellipse;whiteSpace=wrap;html=1;aspect=fixed;fillColor=#96D9FF;" parent="1" vertex="1">
          <mxGeometry x="470" y="290" width="10" height="10" as="geometry" />
        </mxCell>
        <mxCell id="s4xOyff_KLn-6yWEBULN-62" value="" style="ellipse;whiteSpace=wrap;html=1;aspect=fixed;fillColor=#96D9FF;" parent="1" vertex="1">
          <mxGeometry x="547" y="288" width="10" height="10" as="geometry" />
        </mxCell>
        <mxCell id="s4xOyff_KLn-6yWEBULN-63" value="" style="ellipse;whiteSpace=wrap;html=1;aspect=fixed;fillColor=#96D9FF;" parent="1" vertex="1">
          <mxGeometry x="523" y="293" width="10" height="10" as="geometry" />
        </mxCell>
        <mxCell id="s4xOyff_KLn-6yWEBULN-64" value="Group 3" style="text;html=1;align=center;verticalAlign=middle;resizable=0;points=[];autosize=1;strokeColor=none;fillColor=none;" parent="1" vertex="1">
          <mxGeometry x="475" y="209" width="70" height="30" as="geometry" />
        </mxCell>
      </root>
    </mxGraphModel>
  </diagram>
</mxfile>
